<?xml version="1.0" standalone="no"?>
<!DOCTYPE svg PUBLIC "-//W3C//DTD SVG 20010904//EN"
 "http://www.w3.org/TR/2001/REC-SVG-20010904/DTD/svg10.dtd">
<svg version="1.0" xmlns="http://www.w3.org/2000/svg"
 width="300.000000pt" height="300.000000pt" viewBox="0 0 300.000000 300.000000"
 preserveAspectRatio="xMidYMid meet">
<metadata>
Created by potrace 1.10, written by Peter Selinger 2001-2011
</metadata>
<g transform="translate(0.000000,300.000000) scale(0.100000,-0.100000)"
fill="#000000" stroke="none">
<path d="M1585 2624 c-44 -8 -89 -12 -99 -9 -18 4 -82 -20 -96 -34 -3 -4 -25
-16 -50 -29 -124 -62 -289 -174 -371 -252 -14 -14 -51 -46 -82 -73 -230 -196
-427 -677 -427 -1042 0 -107 23 -245 58 -345 29 -83 84 -200 94 -200 5 0 7 -4
4 -9 -12 -18 128 -163 192 -200 34 -20 97 -60 140 -88 187 -127 282 -145 496
-92 43 10 122 39 175 63 53 24 137 61 186 81 156 64 329 152 367 187 36 32
161 244 180 303 10 32 12 867 2 945 -9 72 -64 348 -86 430 -30 115 -58 152
-165 214 -34 20 -85 57 -115 82 -81 69 -124 84 -232 83 -50 -1 -127 -7 -171
-15z m306 -44 c13 -7 44 -31 69 -53 25 -22 83 -63 130 -91 104 -63 120 -89
156 -247 70 -309 72 -333 75 -829 2 -467 1 -482 -37 -530 -6 -8 -30 -51 -54
-95 -73 -139 -92 -152 -440 -303 -289 -126 -327 -140 -432 -158 -151 -26 -223
-8 -379 97 -53 35 -125 80 -159 99 -77 43 -145 121 -200 231 -143 283 -157
574 -45 914 70 214 163 396 253 497 128 142 332 299 524 403 49 26 90 51 94
56 8 13 44 11 44 -2 0 -7 7 -8 18 -4 9 5 69 15 132 24 120 17 207 14 251 -9z"/>
<path d="M1613 2545 c-86 -13 -152 -46 -203 -100 -49 -52 -56 -14 -7 42 l32
37 -40 -24 c-233 -140 -289 -180 -432 -308 -145 -131 -235 -272 -322 -504
-141 -373 -135 -682 18 -976 59 -112 122 -178 219 -230 45 -24 108 -63 140
-87 80 -59 106 -71 180 -85 107 -21 243 10 447 103 55 25 145 64 200 87 239
100 283 131 344 245 21 39 51 92 66 119 l29 50 -3 440 c-1 344 -5 462 -18 536
-25 151 -80 396 -97 429 -11 19 -46 49 -101 82 -46 28 -108 72 -137 96 -28 25
-63 49 -76 54 -32 12 -140 10 -239 -6z m224 -36 c15 -5 48 -27 73 -48 25 -20
82 -61 127 -90 98 -63 104 -74 142 -254 57 -262 60 -300 62 -757 1 -234 -2
-434 -7 -445 -26 -65 -130 -238 -153 -254 -22 -16 -166 -92 -181 -96 -3 -1
-16 -6 -30 -12 -14 -6 -81 -34 -150 -63 -69 -28 -134 -57 -145 -64 -82 -51
-265 -89 -362 -75 -56 8 -146 46 -163 70 -9 12 -132 88 -153 95 -12 4 -27 12
-33 18 -7 6 -28 22 -46 35 -124 89 -238 381 -238 606 0 132 14 232 49 354 69
236 172 441 278 554 94 100 247 226 348 287 22 13 43 28 47 33 3 6 27 7 54 3
45 -6 52 -3 116 40 59 39 81 48 151 59 105 16 178 18 214 4z"/>
</g>
</svg>
